<svg width="571" height="503" viewBox="0 0 571 503" fill="none" xmlns="http://www.w3.org/2000/svg">
<g filter="url(#filter0_d_0_1)">
<path d="M259.211 15C270.758 -5.00003 299.626 -4.99997 311.173 15L562.32 450C573.867 470 559.434 495 536.339 495H34.0447C10.9507 495 -3.483 470 8.064 450L259.211 15Z" fill="#0E0B2B"/>
<path d="M261.809 16.5C272.12 -1.3593 297.778 -1.49917 308.329 16.0811L308.575 16.5L559.722 451.5C570.115 469.5 557.124 492 536.34 492H34.0447C13.4225 492 0.473253 469.85 10.4226 451.923L10.6619 451.5L261.809 16.5Z" stroke="white" stroke-width="6"/>
</g>
<g filter="url(#filter1_d_0_1)">
<path d="M259.147 128.486C270.863 109.459 298.522 109.459 310.238 128.486L471.741 390.77C484.049 410.758 469.669 436.5 446.195 436.5H123.189C99.7155 436.5 85.3356 410.758 97.6433 390.77L259.147 128.486Z" fill="url(#paint0_linear_0_1)"/>
</g>
<g filter="url(#filter2_d_0_1)">
<path d="M259.449 216.309C271.256 197.923 298.128 197.923 309.935 216.309L392.282 344.539C405.104 364.505 390.767 390.75 367.039 390.75H202.346C178.617 390.75 164.281 364.506 177.102 344.539L259.449 216.309Z" fill="url(#paint1_linear_0_1)"/>
</g>
<defs>
<filter id="filter0_d_0_1" x="0" y="0" width="570.384" height="503" filterUnits="userSpaceOnUse" color-interpolation-filters="sRGB">
<feFlood flood-opacity="0" result="BackgroundImageFix"/>
<feColorMatrix in="SourceAlpha" type="matrix" values="0 0 0 0 0 0 0 0 0 0 0 0 0 0 0 0 0 0 127 0" result="hardAlpha"/>
<feOffset dy="4"/>
<feGaussianBlur stdDeviation="2"/>
<feComposite in2="hardAlpha" operator="out"/>
<feColorMatrix type="matrix" values="0 0 0 0 0 0 0 0 0 0 0 0 0 0 0 0 0 0 0.25 0"/>
<feBlend mode="normal" in2="BackgroundImageFix" result="effect1_dropShadow_0_1"/>
<feBlend mode="normal" in="SourceGraphic" in2="effect1_dropShadow_0_1" result="shape"/>
</filter>
<filter id="filter1_d_0_1" x="89.1414" y="114.216" width="391.101" height="330.284" filterUnits="userSpaceOnUse" color-interpolation-filters="sRGB">
<feFlood flood-opacity="0" result="BackgroundImageFix"/>
<feColorMatrix in="SourceAlpha" type="matrix" values="0 0 0 0 0 0 0 0 0 0 0 0 0 0 0 0 0 0 127 0" result="hardAlpha"/>
<feOffset dy="4"/>
<feGaussianBlur stdDeviation="2"/>
<feComposite in2="hardAlpha" operator="out"/>
<feColorMatrix type="matrix" values="0 0 0 0 0 0 0 0 0 0 0 0 0 0 0 0 0 0 0.25 0"/>
<feBlend mode="normal" in2="BackgroundImageFix" result="effect1_dropShadow_0_1"/>
<feBlend mode="normal" in="SourceGraphic" in2="effect1_dropShadow_0_1" result="shape"/>
</filter>
<filter id="filter2_d_0_1" x="168.297" y="202.519" width="232.791" height="196.231" filterUnits="userSpaceOnUse" color-interpolation-filters="sRGB">
<feFlood flood-opacity="0" result="BackgroundImageFix"/>
<feColorMatrix in="SourceAlpha" type="matrix" values="0 0 0 0 0 0 0 0 0 0 0 0 0 0 0 0 0 0 127 0" result="hardAlpha"/>
<feOffset dy="4"/>
<feGaussianBlur stdDeviation="2"/>
<feComposite in2="hardAlpha" operator="out"/>
<feColorMatrix type="matrix" values="0 0 0 0 0 0 0 0 0 0 0 0 0 0 0 0 0 0 0.25 0"/>
<feBlend mode="normal" in2="BackgroundImageFix" result="effect1_dropShadow_0_1"/>
<feBlend mode="normal" in="SourceGraphic" in2="effect1_dropShadow_0_1" result="shape"/>
</filter>
<linearGradient id="paint0_linear_0_1" x1="284.692" y1="87" x2="284.692" y2="553" gradientUnits="userSpaceOnUse">
<stop stop-color="#0E0B2B"/>
<stop offset="1" stop-color="#2D2491"/>
</linearGradient>
<linearGradient id="paint1_linear_0_1" x1="284.692" y1="177" x2="284.692" y2="462" gradientUnits="userSpaceOnUse">
<stop offset="0.139423" stop-color="#0E0B2B"/>
<stop offset="0.4375" stop-color="#2D2491"/>
</linearGradient>
</defs>
</svg>
